<svg xmlns="http://www.w3.org/2000/svg" xmlns:xlink="http://www.w3.org/1999/xlink" version="1.1" id="Capa_1" x="0px" y="0px" width="96.4px" height="92.286px" viewBox="0 0 96.4 92.286" enable-background="new 0 0 96.4 92.286" xml:space="preserve">
<path d="M80.249-2.223H15.151c-8.459,0-15.316,6.858-15.316,15.317v65.098c0,8.459,6.857,15.317,15.316,15.317h65.098  c8.459,0,15.318-6.858,15.318-15.317V13.094C95.567,4.635,88.708-2.223,80.249-2.223z M69.478,67.42  c-4.591,4.592-10.914,5.669-14.17,2.412l-7.611-7.61l-7.603,7.603c-3.255,3.254-9.578,2.194-14.179-2.406  c-4.583-4.583-5.659-10.923-2.404-14.177l7.603-7.604l-7.596-7.596c-3.256-3.256-2.195-9.595,2.396-14.186  c4.582-4.582,10.929-5.652,14.185-2.396l7.597,7.596l7.603-7.603c3.255-3.255,9.595-2.179,14.178,2.404  c4.601,4.601,5.661,10.923,2.406,14.178l-7.603,7.603l7.61,7.612C75.147,56.506,74.061,62.837,69.478,67.42z"/>
</svg>